<?xml version="1.0" encoding="UTF-8"?>
<svg id="a" data-name="Camada 1" xmlns="http://www.w3.org/2000/svg" width="381mm" height="476.25mm" viewBox="0 0 1080 1350">
  <circle cx="510.4892" cy="579.4794" r="459.9775" fill="#6e594b"/>
  <path d="M633.1302,505.0677l18.2031-40.0104,34.9219-72.9479c10.0625-21.026,18.7865-41.3333,26.276-63.2969l6.9167-26.1042c3.3125-12.4844,4.25-24.9688,1.125-37.5104-1.9115-7.6667-6.2656-12.4323-14.8958-12.4219-21.7396.0365-42.2813,13.8646-60.4167,26.8438-13.1823,9.4375-27.3542,24.1927-38.651,36.6094-26.8698,29.5365-48.6667,61.7083-68.0677,96.6354-10.8229,19.4792-21.0313,38.375-29.3542,58.9844l-11.1719,27.651-12.4583,42.0729c-1.2969,4.375-2.026,8.1146-3.0156,12.5938l-3.1563,14.3333c-.6406,2.9063-3.9375,2.3646-6.6771,2.1146-1.9896-.1823-4.5729-3.3125-3.9583-6.5521,1.3281-6.9948,1.5313-14.026,2.5417-21.2865l2.6667-19.2292,2.474-16.9688,3.6719-21.4583,8.7083-39.8333c5.1354-23.4896,38.6198-125.0417,48.6615-111.2396,3.7708,5.1771-1.1667,11.4219-3.1563,16.3698l-18.0833,44.901c-8.974,22.2865-13.8438,45.0208-18.974,68.3021-.6927,3.1458-2.5729,6.3958.1615,9.3229l24.5938-51.0677,12.5469-22.4583c3-5.375,5.849-10.099,9.2188-15.1146l24.9323-37.1458c21.349-28.8438,43.9219-55.5833,73.224-76.7188l21.6875-13.5469,16.1927-6.9479c16.1458-6.9271,37.5417-6.7552,48.5365,7.3646,3.1667,4.0625,5.875,7.9844,6.9271,13.724,2.6094,14.1875.4583,28.9792-3.2448,43.1927l-2.724,10.4427c-4.1354,15.8542-11.901,37.1823-18.7552,51.7969l-18.6823,39.8281c-16.4635,35.1094-34.3438,68.7708-48.6094,104.8594l-10.4427,29.2135c6.7031-2.3333,10.4948-6.8646,15.4844-10.6667l8.9479-6.8125,32.3802-18.1042c10.9948-6.1458,28.4688.1042,29.6875,9.1927l3.1771,23.7135c.8438,6.3125,2.8802,15.9427,10.4844,17.2292,20.2917,3.4271,60.026-17.4271,81.6563-28.5208,9.1615-4.6979,24.6458-14.5469,26.8281-10.0521.4635.9583.0208,3.1563-1.4844,3.9375l-35,18.1615-36.7448,16.4948-10.4531,2.8906c-15.4427,4.2708-26.4427,6.8542-39.3385-2.6146-8.4479-6.2031-10.1979-16.3333-11.4219-26.1667l-2.3854-19.1875c-4.651-.974-7.8594.6771-11.7031,2.6354-20.7656,10.599-39.1146,24.776-55.4948,41.3021l-14.5469,14.6823c-1.7448,1.7604-6.6094.8385-8.3854-.0469-3.2552-2.8802-1.1823-8.2865-.75-11.5365,2.3177-17.3542,11.7448-45.0625,19.3698-61.8281Z" fill="#fff"/>
  <path d="M280.224,486.6823c-12.7813,28.8802-24.026,58.099-27.4219,89.7292-2.2813,21.224-2.4115,41.5781,4.0729,61.4688l5.5885,11.5938c1.1719,2.4375,4.6042,5.9115,7.1146,7.2396,17.9063,9.4635,45.5104-12.6458,61.9323-26.7344l16.375-14.0521c20.1042-17.25,39.5833-35.9323,63.6198-47.6771,9.7552-4.7708,24.724-8.8021,33.0104-4.2552-13.9271,4.2396-24.1198,4.2135-37.8854,12.7344-13.4531,8.3177-25.7292,18.1875-37.151,29.3958-10.7917,10.5885-21.3281,20.349-32.6823,30.2292-6.4948,5.6458-11.7813,11.4531-19.026,16.3438-21.375,14.4271-42.9375,20.2083-61.7448.7344-13.2604-13.7344-15.2552-32.4323-15.4115-51.4167-.1667-19.9583.9271-38.7865,6.276-58.0521,8.8021-31.7292,26.9115-75.3646,43.7188-102.8646l19.3333-31.6354,15.9271-22.6771,20.7292-26.625,21.6979-21.8438,10.2813-8.0677c15.7135-12.3385,40.7292-26.6771,59.2031-21.3906,11.4271,3.2708,21.9219,8.1354,27.8125,18.6042,2.6875,4.7656,5.0417,8.0469,5.9323,13.8333.4688,3.0521,1.9063,6.1719,2.0833,9.849,1.2552,25.6615-2.8385,41.526-16.7083,63.6198l-9.3906,14.9531c-14.3125,19.9427-31.7031,36.2969-52.849,48.8594-11.0938,6.5885-21.8958,12.0313-35.3802,11.9948-10.0677-.026-20.026-4.9635-23.9219-14.8385-.6667-1.6979,3.6979-2.724,5.1042-2.2188,5.5573,1.9896,5.5417,11.099,16.4844,9.8333,9.4688-1.0938,18.3542-3.7604,26.1927-9.1042l23.7135-16.1667,10.6042-8.9219,7.2656-8.3333c12.8594-14.7344,21.9271-30.375,29.6406-48.125,7.2031-16.5833,10.8385-33.6042,5.9375-51.5573-2.5469-9.3281-6.5-19.7969-16.3281-23.6615-22.2813-8.7604-53.1719,16.3281-71.0781,32.724l-11.9896,10.974-13.4479,15.5625c-17.0573,19.7396-30.651,42.6458-44.151,64.9479l-13.6198,25.4896c-3.4896,6.5313-6.401,12.5781-9.4635,19.5052Z" fill="#fff"/>
  <path d="M243.3773,710.4357h13c3.2188,0,5.6563.8281,7.3125,2.4792,1.276,1.2813,1.9167,2.8646,1.9167,4.75v.0833c0,.7917-.1042,1.5-.3125,2.125-.1979.6146-.4583,1.1667-.7917,1.6667-.3333.4896-.724.9167-1.1667,1.2917-.4323.3646-.8958.6823-1.3958.9583,1.625.6146,2.901,1.4479,3.8333,2.5.9271,1.0417,1.3958,2.5,1.3958,4.375v.0833c0,1.2813-.25,2.3958-.75,3.3542-.4896.9583-1.1875,1.7604-2.1042,2.3958-.9167.6406-2.0313,1.1198-3.3333,1.4375-1.2917.3229-2.724.4792-4.2917.4792h-13.3125v-27.9792ZM259.5023,718.7066c0-.9271-.349-1.6354-1.0417-2.125-.6979-.5-1.6979-.75-3-.75h-6.0833v5.9167h5.6875c1.3437,0,2.4219-.2292,3.2292-.6875.8021-.4688,1.2083-1.2292,1.2083-2.2708v-.0833ZM261.044,729.8941c0-.9271-.3646-1.6667-1.0833-2.2083-.7083-.5521-1.8646-.8333-3.4583-.8333h-7.125v6.1667h7.3125c1.3594,0,2.4219-.2396,3.1875-.7292.776-.5,1.1667-1.2708,1.1667-2.3125v-.0833Z" fill="#fff"/>
  <path d="M292.2332,710.4357h21.1042v5.4792h-14.9792v5.6667h13.1875v5.4792h-13.1875v5.875h15.1875v5.4792h-21.3125v-27.9792Z" fill="#fff"/>
  <path d="M348.6142,710.2274h5.6667l12,28.1875h-6.4375l-2.5625-6.2708h-11.8333l-2.5625,6.2708h-6.2708l12-28.1875ZM355.0934,726.7066l-3.7292-9.0833-3.7083,9.0833h7.4375Z" fill="#fff"/>
  <path d="M401.2725,738.8524c-3.7656,0-6.7292-1.0312-8.8958-3.1042-2.1562-2.0833-3.2292-5.1927-3.2292-9.3333v-15.9792h6.1667v15.8333c0,2.2917.526,4.0208,1.5833,5.1875,1.0677,1.1563,2.5469,1.7292,4.4375,1.7292,1.901,0,3.3802-.5625,4.4375-1.6875,1.0677-1.125,1.6042-2.8021,1.6042-5.0417v-16.0208h6.1667v15.7917c0,2.125-.2917,3.9792-.875,5.5625-.5729,1.5729-1.3906,2.8854-2.4583,3.9375-1.0573,1.0417-2.349,1.8281-3.875,2.3542-1.5156.5104-3.2031.7708-5.0625.7708Z" fill="#fff"/>
  <path d="M446.321,716.1024h-8.5208v-5.6667h23.1875v5.6667h-8.5v22.3125h-6.1667v-22.3125Z" fill="#fff"/>
  <path d="M493.5725,727.3732l-10.75-16.9375h7.1875l6.6875,11.2292,6.7917-11.2292h7l-10.75,16.8333v11.1458h-6.1667v-11.0417Z" fill="#fff"/>
  <path d="M566.2976,710.4357h6.1667v22.375h13.9375v5.6042h-20.1042v-27.9792Z" fill="#fff"/>
  <path d="M623.0405,738.8941c-2.1667,0-4.1615-.375-5.9792-1.125-1.8073-.7604-3.3698-1.7917-4.6875-3.0833-1.3229-1.2917-2.349-2.8125-3.0833-4.5625-.724-1.75-1.0833-3.625-1.0833-5.625v-.0833c0-2,.3646-3.8646,1.1042-5.6042.75-1.75,1.7812-3.2813,3.1042-4.6042,1.3177-1.3177,2.8854-2.3542,4.7083-3.1042,1.8333-.7604,3.8229-1.1458,5.9792-1.1458,2.1667,0,4.151.3854,5.9583,1.1458,1.8177.75,3.3854,1.7708,4.7083,3.0625,1.3177,1.2917,2.3385,2.8125,3.0625,4.5625.7344,1.75,1.1042,3.625,1.1042,5.625v.0625c0,2-.375,3.875-1.125,5.625-.7396,1.75-1.7656,3.2865-3.0833,4.6042-1.3229,1.3229-2.8958,2.3646-4.7292,3.125-1.8229.75-3.8073,1.125-5.9583,1.125ZM623.103,733.2274c1.2344,0,2.3646-.2292,3.3958-.6875,1.0417-.4583,1.9271-1.0833,2.6667-1.875.7344-.8021,1.3021-1.7292,1.7083-2.7708.4167-1.0521.625-2.1875.625-3.3958v-.0833c0-1.1927-.2083-2.3229-.625-3.3958-.4063-1.0677-.9896-2-1.75-2.7917-.75-.8021-1.6458-1.4375-2.6875-1.8958-1.0417-.4688-2.1771-.7083-3.3958-.7083-1.2656,0-2.4115.2292-3.4375.6875-1.0156.4479-1.8906,1.0729-2.625,1.875-.7396.8073-1.3125,1.7396-1.7292,2.7917-.4063,1.0417-.6042,2.1667-.6042,3.375v.0625c0,1.2083.1979,2.349.6042,3.4167.4167,1.0573,1.0052,1.9896,1.7708,2.7917.7604.7917,1.651,1.4271,2.6667,1.8958,1.026.474,2.1667.7083,3.4167.7083Z" fill="#fff"/>
  <path d="M675.0971,738.8524c-3.7656,0-6.7292-1.0312-8.8958-3.1042-2.1562-2.0833-3.2292-5.1927-3.2292-9.3333v-15.9792h6.1667v15.8333c0,2.2917.526,4.0208,1.5833,5.1875,1.0677,1.1563,2.5469,1.7292,4.4375,1.7292,1.901,0,3.3802-.5625,4.4375-1.6875,1.0677-1.125,1.6042-2.8021,1.6042-5.0417v-16.0208h6.1667v15.7917c0,2.125-.2917,3.9792-.875,5.5625-.5729,1.5729-1.3906,2.8854-2.4583,3.9375-1.0573,1.0417-2.349,1.8281-3.875,2.3542-1.5156.5104-3.2031.7708-5.0625.7708Z" fill="#fff"/>
  <path d="M713.6248,710.4357h5.6875l13.1042,17.2292v-17.2292h6.0833v27.9792h-5.25l-13.5417-17.7917v17.7917h-6.0833v-27.9792Z" fill="#fff"/>
  <path d="M778.6785,738.8941c-2.1823,0-4.1771-.3646-5.9792-1.0833-1.8073-.7188-3.3542-1.7188-4.6458-3-1.2917-1.276-2.3021-2.7917-3.0208-4.5417-.7083-1.7604-1.0625-3.6875-1.0625-5.7708v-.0833c0-2,.3594-3.8646,1.0833-5.6042.7344-1.75,1.7552-3.2813,3.0625-4.6042,1.3021-1.3177,2.8438-2.3542,4.625-3.1042,1.7917-.7604,3.7552-1.1458,5.8958-1.1458,1.25,0,2.3854.0938,3.4167.2708,1.026.1667,1.9792.4115,2.8542.7292.8854.3229,1.7135.724,2.4792,1.2083.776.474,1.526,1.0156,2.25,1.625l-3.875,4.6667c-.5417-.4427-1.0833-.8385-1.625-1.1875-.5313-.3438-1.0781-.6354-1.6458-.875-.5729-.25-1.1875-.4375-1.8542-.5625-.6667-.1354-1.4063-.2083-2.2083-.2083-1.1146,0-2.1563.2396-3.125.7083-.974.4583-1.8281,1.0833-2.5625,1.875-.7396.7917-1.3125,1.7187-1.7292,2.7708-.4063,1.0417-.6042,2.1667-.6042,3.375v.0625c0,1.2813.1979,2.4583.6042,3.5417.4167,1.0833,1.0052,2.0313,1.7708,2.8333.7604.7917,1.651,1.4115,2.6667,1.8542,1.026.4323,2.1667.6458,3.4167.6458,2.3021,0,4.2396-.5521,5.8125-1.6667v-4h-6.2083v-5.3125h12.1667v12.1458c-1.4479,1.224-3.1615,2.2708-5.1458,3.1458-1.9896.8594-4.2604,1.2917-6.8125,1.2917Z" fill="#fff"/>
  <path d="M816.534,710.4357h21.1042v5.4792h-14.9792v5.6667h13.1875v5.4792h-13.1875v5.875h15.1875v5.4792h-21.3125v-27.9792Z" fill="#fff"/>
</svg>